<mxfile host="app.diagrams.net" modified="2023-09-03T14:46:23.435Z" agent="Mozilla/5.0 (Windows NT 10.0; Win64; x64) AppleWebKit/537.36 (KHTML, like Gecko) Chrome/116.0.0.0 Safari/537.36" etag="ep_irJUj3UJw-heGT21g" version="21.7.2" type="github">
  <diagram id="C5RBs43oDa-KdzZeNtuy" name="Page-1">
    <mxGraphModel dx="733" dy="372" grid="1" gridSize="10" guides="1" tooltips="1" connect="1" arrows="1" fold="1" page="1" pageScale="1" pageWidth="827" pageHeight="1169" math="0" shadow="0">
      <root>
        <mxCell id="WIyWlLk6GJQsqaUBKTNV-0" />
        <mxCell id="WIyWlLk6GJQsqaUBKTNV-1" parent="WIyWlLk6GJQsqaUBKTNV-0" />
        <mxCell id="WIyWlLk6GJQsqaUBKTNV-2" value="" style="rounded=0;html=1;jettySize=auto;orthogonalLoop=1;fontSize=11;endArrow=block;endFill=0;endSize=8;strokeWidth=1;shadow=0;labelBackgroundColor=none;edgeStyle=orthogonalEdgeStyle;" parent="WIyWlLk6GJQsqaUBKTNV-1" source="WIyWlLk6GJQsqaUBKTNV-3" target="WIyWlLk6GJQsqaUBKTNV-6" edge="1">
          <mxGeometry relative="1" as="geometry" />
        </mxCell>
        <mxCell id="WIyWlLk6GJQsqaUBKTNV-3" value="Start" style="rounded=1;whiteSpace=wrap;html=1;fontSize=12;glass=0;strokeWidth=1;shadow=0;shape=ellipse;perimeter=ellipsePerimeter;" parent="WIyWlLk6GJQsqaUBKTNV-1" vertex="1">
          <mxGeometry x="99" y="80" width="120" height="40" as="geometry" />
        </mxCell>
        <mxCell id="ta0sgXQVjD09G3HT9TMJ-7" value="" style="edgeStyle=orthogonalEdgeStyle;rounded=0;orthogonalLoop=1;jettySize=auto;html=1;" edge="1" parent="WIyWlLk6GJQsqaUBKTNV-1" source="WIyWlLk6GJQsqaUBKTNV-6" target="ta0sgXQVjD09G3HT9TMJ-6">
          <mxGeometry relative="1" as="geometry" />
        </mxCell>
        <mxCell id="WIyWlLk6GJQsqaUBKTNV-6" value="Input ax&lt;sup&gt;2&lt;/sup&gt; + bx + c" style="whiteSpace=wrap;html=1;shadow=0;fontFamily=Helvetica;fontSize=12;align=center;strokeWidth=1;spacing=6;spacingTop=-4;shape=parallelogram;perimeter=parallelogramPerimeter;fixedSize=1;" parent="WIyWlLk6GJQsqaUBKTNV-1" vertex="1">
          <mxGeometry x="49" y="160" width="220" height="40" as="geometry" />
        </mxCell>
        <mxCell id="ta0sgXQVjD09G3HT9TMJ-11" value="" style="edgeStyle=orthogonalEdgeStyle;rounded=0;orthogonalLoop=1;jettySize=auto;html=1;" edge="1" parent="WIyWlLk6GJQsqaUBKTNV-1" source="ta0sgXQVjD09G3HT9TMJ-6" target="ta0sgXQVjD09G3HT9TMJ-10">
          <mxGeometry relative="1" as="geometry" />
        </mxCell>
        <mxCell id="ta0sgXQVjD09G3HT9TMJ-15" value="" style="edgeStyle=orthogonalEdgeStyle;rounded=0;orthogonalLoop=1;jettySize=auto;html=1;" edge="1" parent="WIyWlLk6GJQsqaUBKTNV-1" source="ta0sgXQVjD09G3HT9TMJ-6" target="ta0sgXQVjD09G3HT9TMJ-14">
          <mxGeometry relative="1" as="geometry" />
        </mxCell>
        <mxCell id="ta0sgXQVjD09G3HT9TMJ-6" value="a = 0" style="rhombus;whiteSpace=wrap;html=1;shadow=0;strokeWidth=1;spacing=6;spacingTop=-4;" vertex="1" parent="WIyWlLk6GJQsqaUBKTNV-1">
          <mxGeometry x="119" y="260" width="80" height="80" as="geometry" />
        </mxCell>
        <mxCell id="ta0sgXQVjD09G3HT9TMJ-27" value="" style="edgeStyle=orthogonalEdgeStyle;rounded=0;orthogonalLoop=1;jettySize=auto;html=1;" edge="1" parent="WIyWlLk6GJQsqaUBKTNV-1" source="ta0sgXQVjD09G3HT9TMJ-10" target="ta0sgXQVjD09G3HT9TMJ-26">
          <mxGeometry relative="1" as="geometry" />
        </mxCell>
        <mxCell id="ta0sgXQVjD09G3HT9TMJ-10" value="x = -c/b" style="whiteSpace=wrap;html=1;shadow=0;strokeWidth=1;spacing=6;spacingTop=-4;" vertex="1" parent="WIyWlLk6GJQsqaUBKTNV-1">
          <mxGeometry x="259" y="280" width="100" height="40" as="geometry" />
        </mxCell>
        <mxCell id="ta0sgXQVjD09G3HT9TMJ-13" value="Yes" style="text;html=1;strokeColor=none;fillColor=none;align=center;verticalAlign=middle;whiteSpace=wrap;rounded=0;" vertex="1" parent="WIyWlLk6GJQsqaUBKTNV-1">
          <mxGeometry x="199" y="270" width="60" height="30" as="geometry" />
        </mxCell>
        <mxCell id="ta0sgXQVjD09G3HT9TMJ-25" value="" style="edgeStyle=orthogonalEdgeStyle;rounded=0;orthogonalLoop=1;jettySize=auto;html=1;" edge="1" parent="WIyWlLk6GJQsqaUBKTNV-1" source="ta0sgXQVjD09G3HT9TMJ-14" target="ta0sgXQVjD09G3HT9TMJ-24">
          <mxGeometry relative="1" as="geometry" />
        </mxCell>
        <mxCell id="ta0sgXQVjD09G3HT9TMJ-14" value="x&lt;sub&gt;1&lt;/sub&gt; = -b + √b&lt;sup&gt;2&lt;/sup&gt; - 4ac / 2a&lt;br&gt;x&lt;sub&gt;2&lt;/sub&gt;&amp;nbsp;= -b -&amp;nbsp;√b&lt;sup&gt;2&lt;/sup&gt; - 4ac / 2a" style="whiteSpace=wrap;html=1;shadow=0;strokeWidth=1;spacing=6;spacingTop=-4;" vertex="1" parent="WIyWlLk6GJQsqaUBKTNV-1">
          <mxGeometry x="79" y="430" width="160" height="60" as="geometry" />
        </mxCell>
        <mxCell id="ta0sgXQVjD09G3HT9TMJ-16" value="No" style="text;html=1;strokeColor=none;fillColor=none;align=center;verticalAlign=middle;whiteSpace=wrap;rounded=0;" vertex="1" parent="WIyWlLk6GJQsqaUBKTNV-1">
          <mxGeometry x="149" y="360" width="60" height="30" as="geometry" />
        </mxCell>
        <mxCell id="ta0sgXQVjD09G3HT9TMJ-24" value="print x&lt;sub&gt;1&lt;/sub&gt;&lt;br&gt;print x&lt;sub&gt;2&lt;/sub&gt;" style="shape=parallelogram;perimeter=parallelogramPerimeter;whiteSpace=wrap;html=1;fixedSize=1;shadow=0;strokeWidth=1;spacing=6;spacingTop=-4;" vertex="1" parent="WIyWlLk6GJQsqaUBKTNV-1">
          <mxGeometry x="339" y="430" width="120" height="60" as="geometry" />
        </mxCell>
        <mxCell id="ta0sgXQVjD09G3HT9TMJ-26" value="print x" style="shape=parallelogram;perimeter=parallelogramPerimeter;whiteSpace=wrap;html=1;fixedSize=1;shadow=0;strokeWidth=1;spacing=6;spacingTop=-4;" vertex="1" parent="WIyWlLk6GJQsqaUBKTNV-1">
          <mxGeometry x="429" y="270" width="120" height="60" as="geometry" />
        </mxCell>
        <mxCell id="ta0sgXQVjD09G3HT9TMJ-29" value="" style="endArrow=none;html=1;rounded=0;exitX=1;exitY=0.5;exitDx=0;exitDy=0;entryX=1;entryY=0.5;entryDx=0;entryDy=0;endFill=0;" edge="1" parent="WIyWlLk6GJQsqaUBKTNV-1" source="ta0sgXQVjD09G3HT9TMJ-24" target="ta0sgXQVjD09G3HT9TMJ-26">
          <mxGeometry width="50" height="50" relative="1" as="geometry">
            <mxPoint x="459" y="500" as="sourcePoint" />
            <mxPoint x="629" y="370" as="targetPoint" />
            <Array as="points">
              <mxPoint x="589" y="460" />
              <mxPoint x="589" y="300" />
            </Array>
          </mxGeometry>
        </mxCell>
        <mxCell id="ta0sgXQVjD09G3HT9TMJ-32" value="" style="endArrow=classic;html=1;rounded=0;" edge="1" parent="WIyWlLk6GJQsqaUBKTNV-1">
          <mxGeometry width="50" height="50" relative="1" as="geometry">
            <mxPoint x="589" y="380" as="sourcePoint" />
            <mxPoint x="659" y="380" as="targetPoint" />
          </mxGeometry>
        </mxCell>
        <mxCell id="ta0sgXQVjD09G3HT9TMJ-33" value="DONE" style="ellipse;whiteSpace=wrap;html=1;" vertex="1" parent="WIyWlLk6GJQsqaUBKTNV-1">
          <mxGeometry x="659" y="360" width="120" height="40" as="geometry" />
        </mxCell>
      </root>
    </mxGraphModel>
  </diagram>
</mxfile>
